<?xml version="1.0" encoding="UTF-8"?>
<svg id="Layer_2" data-name="Layer 2" xmlns="http://www.w3.org/2000/svg" viewBox="0 0 542.25 542.25">
  <defs>
    <style>
      .cls-1 {
        fill: #c1c1c1;
      }
    </style>
  </defs>
  <g id="Layer_1-2" data-name="Layer 1">
    <g>
      <path class="cls-1" d="M493.18,424.48l-106.09,106.09c-7.48,7.48-17.63,11.69-28.21,11.69h-192.03l250.27-250.27,76.06,76.06c15.58,15.58,15.58,40.85,0,56.43Z"/>
      <path class="cls-1" d="M375.41,0L125.14,250.27l-76.06-76.06c-15.58-15.58-15.58-40.85,0-56.43L155.16,11.69c7.48-7.48,17.63-11.69,28.21-11.69h192.03Z"/>
      <path class="cls-1" d="M542.25,375.41l-250.27-250.27,76.06-76.06c15.58-15.58,40.85-15.58,56.43,0l106.09,106.09c7.48,7.48,11.69,17.63,11.69,28.21v192.03Z"/>
      <path class="cls-1" d="M250.27,417.12l-76.06,76.06c-15.58,15.58-40.85,15.58-56.43,0L11.69,387.09c-7.48-7.48-11.69-17.63-11.69-28.21v-192.03l250.27,250.27Z"/>
    </g>
  </g>
</svg>