<?xml version="1.0" encoding="UTF-8"?>
<svg id="Layer_2" data-name="Layer 2" xmlns="http://www.w3.org/2000/svg" viewBox="0 0 542.25 540.93">
  <defs>
    <style>
      .cls-1 {
        fill: #34d399;
      }
    </style>
  </defs>
  <g id="Layer_1-2" data-name="Layer 1-2">
    <g>
      <path class="cls-1" d="M493.18,423.44l-106.09,105.83c-7.48,7.46-17.63,11.66-28.21,11.66h-192.03l250.27-249.66,76.06,75.87c15.58,15.54,15.58,40.75,0,56.29h0Z"/>
      <path class="cls-1" d="M375.41,0L125.14,249.66l-76.06-75.87c-15.58-15.54-15.58-40.75,0-56.29L155.16,11.66c7.48-7.46,17.63-11.66,28.21-11.66h192.04Z"/>
      <path class="cls-1" d="M542.25,374.49l-250.27-249.66,76.06-75.87c15.58-15.54,40.85-15.54,56.43,0l106.09,105.83c7.48,7.46,11.69,17.59,11.69,28.14v191.56h0Z"/>
      <path class="cls-1" d="M250.27,416.1l-76.06,75.87c-15.58,15.54-40.85,15.54-56.43,0L11.69,386.14c-7.48-7.46-11.69-17.59-11.69-28.14v-191.56l250.27,249.66Z"/>
    </g>
  </g>
</svg>